<?xml version="1.0" standalone="no"?>
<!DOCTYPE svg PUBLIC "-//W3C//DTD SVG 20010904//EN"
 "http://www.w3.org/TR/2001/REC-SVG-20010904/DTD/svg10.dtd">
<svg version="1.0" xmlns="http://www.w3.org/2000/svg"
 width="2651.000000pt" height="1065.000000pt" viewBox="0 0 2651.000000 1065.000000"
 preserveAspectRatio="xMidYMid meet">

<g transform="translate(0.000000,1065.000000) scale(0.100000,-0.100000)"
fill="#000000" stroke="none">
<path d="M2172 10059 c-58 -14 -136 -88 -151 -144 -14 -52 -14 -198 0 -250 7
-26 28 -56 59 -86 50 -49 105 -69 190 -69 l40 0 0 -1538 c0 -1698 4 -1596 -63
-1684 -43 -56 -122 -103 -208 -122 -98 -23 -1002 -23 -1097 -1 -92 22 -170 65
-230 129 -96 101 -136 223 -135 416 0 200 49 366 168 565 70 119 84 166 65
236 -21 80 -180 206 -274 216 -94 11 -158 -28 -233 -143 -203 -312 -306 -698
-275 -1032 44 -478 305 -799 750 -920 l97 -26 570 -4 c622 -3 685 1 843 54
227 76 381 205 478 399 71 143 86 218 92 443 2 105 6 192 8 192 2 0 36 -9 76
-19 148 -40 228 -46 623 -46 379 0 380 1 475 27 111 30 248 94 305 142 l39 33
64 -49 c107 -82 220 -128 360 -148 55 -8 753 -10 2402 -8 l2325 3 80 23 c97
28 212 81 277 127 26 19 51 35 54 35 4 0 30 -20 58 -44 160 -136 335 -201 576
-213 273 -13 485 50 671 200 l60 47 59 -48 c121 -98 271 -162 440 -187 301
-46 586 20 785 181 165 135 278 354 315 611 7 52 10 262 8 629 l-3 551 -27 39
c-15 21 -44 50 -65 64 -33 22 -48 25 -152 28 -67 2 -131 -1 -153 -7 -49 -15
-94 -54 -121 -105 -22 -40 -22 -48 -27 -596 l-6 -555 -24 -65 c-33 -86 -122
-179 -195 -203 -119 -40 -269 -38 -363 3 -69 31 -109 65 -142 123 -65 112 -63
98 -69 713 l-6 561 -28 41 c-15 23 -46 54 -69 69 -37 25 -52 28 -147 31 -126
5 -178 -7 -228 -51 -74 -65 -73 -51 -73 -617 0 -517 -4 -587 -41 -684 -44
-119 -161 -202 -301 -215 -197 -17 -334 43 -402 177 -52 102 -56 158 -56 715
l0 515 -28 53 c-22 43 -38 59 -81 81 -49 26 -62 28 -162 28 -148 0 -197 -21
-252 -110 -22 -35 -22 -41 -27 -605 -6 -645 -5 -630 -86 -711 -31 -32 -59 -48
-109 -63 -67 -21 -70 -21 -2319 -21 -2033 0 -2258 2 -2307 16 -104 30 -152 78
-192 191 -20 55 -21 85 -26 584 l-6 526 -30 48 c-22 36 -45 57 -84 77 -48 25
-63 28 -157 28 -115 0 -159 -12 -207 -58 -64 -61 -61 -34 -67 -642 -5 -489 -8
-560 -23 -598 -27 -71 -54 -99 -125 -134 l-67 -33 -325 1 c-270 1 -337 4 -395
18 -174 42 -253 143 -275 349 -6 54 -10 567 -10 1223 l0 1132 -28 53 c-20 39
-41 62 -77 84 l-48 30 -246 2 c-138 1 -265 -3 -289 -8z"/>
<path d="M24870 9796 c0 -2 8 -10 18 -17 15 -13 16 -12 3 4 -13 16 -21 21 -21
13z"/>
<path d="M25056 9608 c25 -41 54 -80 54 -72 0 9 -51 84 -57 84 -2 0 -1 -6 3
-12z"/>
<path d="M25136 9466 c1 -27 8 -54 15 -60 8 -8 10 -5 5 14 -3 14 -3 19 0 12 3
-6 10 -10 15 -6 5 3 2 12 -6 20 -8 9 -13 20 -10 25 4 5 2 9 -4 9 -5 0 -12 8
-14 18 -3 9 -3 -5 -1 -32z"/>
<path d="M25179 9393 c13 -26 9 -28 -21 -12 -16 9 -19 8 -13 -2 6 -9 3 -11 -9
-6 -9 4 -14 3 -11 -2 3 -5 23 -8 45 -6 34 3 40 1 40 -15 0 -10 4 -21 9 -24 5
-3 7 -15 4 -26 -3 -11 -8 -18 -12 -16 -3 2 -7 -12 -7 -32 -1 -21 -2 -61 -3
-89 l-1 -53 -34 0 c-37 0 -46 -15 -46 -77 0 -32 -2 -33 -40 -33 l-40 0 0 -41
0 -40 -42 3 -43 3 3 43 c2 33 -1 42 -13 42 -14 0 -15 -8 -9 -47 3 -27 11 -56
16 -67 7 -13 7 -16 -2 -11 -8 5 -11 -15 -10 -77 1 -45 1 -85 0 -88 -1 -3 -9
-32 -18 -65 l-17 -60 -40 0 c-22 -1 -119 -3 -215 -5 l-175 -4 165 -6 c99 -3
132 -7 83 -8 -47 -1 -83 -6 -83 -12 0 -6 -35 -11 -82 -12 -46 -1 -64 -3 -40
-5 23 -2 42 -8 42 -14 0 -5 18 -9 40 -9 l40 0 0 -40 0 -40 -40 0 c-29 0 -40
-4 -40 -15 0 -10 11 -15 35 -15 24 0 35 -5 35 -15 0 -10 -11 -15 -35 -15 -24
0 -35 -5 -35 -15 0 -11 -11 -15 -40 -15 -39 0 -40 -1 -40 -35 0 -34 -1 -35
-40 -35 -28 0 -40 -4 -40 -14 0 -10 -13 -16 -37 -19 -21 -2 1 -2 50 1 61 3 87
1 87 -7 0 -7 -31 -12 -92 -13 -68 -1 -81 -3 -48 -7 25 -3 -47 -8 -160 -11
-201 -6 -199 -6 100 -8 168 -1 310 -2 316 -2 17 0 25 -28 12 -36 -7 -4 -8 -3
-4 4 18 30 -15 6 -69 -48 -55 -56 -68 -82 -21 -42 l21 17 -19 -23 c-11 -12
-26 -20 -33 -18 -18 7 -85 -54 -78 -71 3 -8 0 -11 -6 -7 -13 8 -260 -236 -252
-249 3 -6 1 -7 -4 -4 -6 4 -62 -44 -126 -106 -64 -61 -238 -231 -387 -377
-150 -146 -296 -289 -326 -318 -58 -56 -66 -69 -34 -52 14 7 20 7 20 0 0 -9
-21 -15 -42 -11 -5 0 -17 -8 -28 -19 -20 -20 -18 -47 4 -62 8 -5 7 -11 -2 -20
-9 -9 -12 -9 -12 5 0 9 -4 17 -10 17 -5 0 -10 -7 -10 -15 0 -18 -59 -74 -78
-75 -7 0 -15 -7 -18 -15 -4 -8 -10 -13 -15 -10 -13 9 22 44 64 66 25 13 37 25
33 34 -3 8 -1 17 4 20 6 4 10 11 10 17 0 6 -11 1 -25 -12 -14 -13 -23 -30 -20
-38 2 -7 1 -10 -5 -7 -12 8 -91 -66 -83 -78 3 -6 1 -7 -4 -4 -6 4 -32 -16 -57
-43 -26 -28 -52 -50 -59 -50 -7 0 -3 -8 8 -17 20 -15 20 -15 -2 -10 -14 3 -29
-3 -44 -19 l-21 -23 28 -25 29 -25 -23 -21 c-13 -12 -26 -19 -30 -15 -4 4 -1
10 6 12 12 5 18 33 6 33 -14 0 -34 -31 -34 -54 0 -16 -6 -26 -15 -26 -18 0
-19 -12 -4 -27 9 -9 7 -12 -10 -10 -14 1 -20 6 -16 15 3 8 -3 16 -15 19 -11 3
-20 12 -20 20 0 10 4 11 19 3 24 -12 54 -2 47 16 -3 7 -1 16 5 20 5 3 9 13 7
22 -1 10 1 24 6 32 5 8 -40 -33 -100 -92 -85 -84 -106 -110 -96 -120 6 -6 15
-8 19 -4 4 4 2 11 -6 15 -10 7 -9 10 3 14 12 5 16 0 17 -21 1 -15 1 -32 0 -39
-1 -7 16 -13 41 -16 l43 -4 -42 -1 c-24 -1 -43 -6 -43 -12 0 -5 -9 -10 -20
-10 -14 0 -20 7 -20 24 0 13 -6 27 -12 30 -7 3 -2 3 12 0 24 -6 24 -5 8 12
-17 17 -21 14 -101 -67 -129 -131 -195 -227 -177 -257 8 -15 9 -14 10 6 0 12
5 22 10 22 6 0 10 -9 10 -20 0 -11 9 -25 20 -32 11 -7 20 -16 20 -20 0 -8 -27
-4 -36 5 -12 12 -42 8 -47 -7 -3 -8 -4 -40 -2 -70 3 -31 1 -56 -4 -56 -5 0 -7
10 -5 23 l5 22 -12 -22 c-21 -41 -29 -24 -9 20 11 23 15 43 10 45 -5 2 -3 16
5 32 16 30 21 69 8 56 -5 -4 -8 -11 -8 -14 -1 -4 -15 -36 -32 -72 -34 -73 -57
-156 -47 -172 4 -6 3 -8 -3 -5 -11 7 -24 -72 -22 -128 l1 -30 8 30 8 30 1 -29
c0 -16 -5 -37 -13 -45 -27 -32 12 -278 63 -391 10 -22 21 -37 26 -32 5 4 5 2
2 -4 -9 -16 22 -76 35 -68 7 5 8 2 4 -5 -20 -32 160 -238 276 -317 103 -69
163 -99 265 -133 278 -92 581 -50 830 115 83 55 217 182 773 734 47 47 396
391 775 765 843 831 828 816 883 890 108 146 162 317 162 509 0 443 -300 858
-712 984 -83 26 -210 44 -288 41 -33 -1 -62 0 -64 2 -3 3 -1 22 3 44 5 22 11
68 15 103 4 49 3 61 -7 56 -9 -6 -9 -4 1 8 8 11 11 38 7 89 -7 99 -36 249 -47
249 -5 0 -7 4 -4 9 3 5 1 23 -5 41 -9 24 -14 29 -21 18 -6 -8 -7 -1 -3 22 5
26 4 31 -4 20 -6 -8 -11 -23 -11 -32 0 -24 -16 -23 -23 2 -3 11 -2 20 2 20 4
0 13 12 19 26 8 17 9 23 1 19 -6 -4 -9 -1 -8 6 4 26 -13 67 -38 91 l-26 23 12
-22z m-139 -518 c0 -10 -11 -15 -35 -15 -24 0 -35 5 -35 15 0 10 11 15 35 15
24 0 35 -5 35 -15z m-83 -117 c-3 -8 -6 -5 -6 6 -1 11 2 17 5 13 3 -3 4 -12 1
-19z m-37 -178 c0 -5 -10 -10 -22 -9 -22 0 -22 1 -3 9 11 5 21 9 23 9 1 1 2
-3 2 -9z m-333 -336 c-3 -3 -12 -4 -19 -1 -8 3 -5 6 6 6 11 1 17 -2 13 -5z
m-40 -10 c-3 -3 -12 -4 -19 -1 -8 3 -5 6 6 6 11 1 17 -2 13 -5z m-50 -20 c-3
-3 -12 -4 -19 -1 -8 3 -5 6 6 6 11 1 17 -2 13 -5z m90 0 c-3 -3 -12 -4 -19 -1
-8 3 -5 6 6 6 11 1 17 -2 13 -5z m982 -39 c229 -73 412 -332 414 -590 1 -106
-19 -184 -67 -259 -29 -45 -325 -344 -821 -831 -88 -86 -352 -346 -586 -578
-887 -879 -909 -900 -978 -936 -205 -108 -449 -91 -625 44 -26 20 -52 33 -59
29 -7 -4 -9 -4 -5 1 4 4 -13 33 -38 63 -100 122 -139 245 -131 407 10 184 55
269 244 459 70 71 127 133 125 138 -1 4 1 7 5 6 5 -2 25 10 46 26 29 22 36 34
32 50 -4 14 -3 17 3 8 7 -11 15 -7 38 15 226 217 498 489 496 495 -1 5 2 7 7
6 5 -2 157 141 338 317 954 930 1055 1031 1103 1103 l35 52 172 0 c156 0 179
-2 252 -25z m-1096 -160 c-3 -9 -8 -14 -10 -11 -3 3 -2 9 2 15 9 16 15 13 8
-4z m-84 -96 c-30 -22 -36 -17 -13 10 10 11 22 17 27 14 5 -3 -1 -14 -14 -24z
m-19 -44 c0 -12 -19 -12 -23 0 -4 9 -1 12 9 8 7 -3 14 -7 14 -8z m-53 -13
c-10 -10 -14 -22 -10 -25 3 -4 7 -21 8 -38 2 -27 0 -30 -10 -16 -15 21 -29 22
-21 1 3 -8 2 -12 -4 -9 -15 9 -12 21 7 41 13 13 14 19 5 22 -8 2 -4 10 10 23
29 24 36 24 15 1z m78 -2 c-3 -5 -12 -10 -18 -10 -7 0 -6 4 3 10 19 12 23 12
15 0z m-135 -53 c0 -2 -9 -12 -20 -22 -24 -21 -27 -14 -4 9 15 15 24 20 24 13z
m-103 -117 c1 -16 -1 -17 -12 -7 -11 10 -8 19 10 27 1 0 1 -9 2 -20z m-76 -91
l-10 -24 0 23 c-1 16 -5 21 -13 16 -9 -5 -8 -2 1 10 19 23 34 6 22 -25z m-39
-21 c-7 -7 -12 -8 -12 -2 0 14 12 26 19 19 2 -3 -1 -11 -7 -17z m-43 -56 c-1
-15 -2 -15 -6 1 -4 15 -7 16 -21 5 -15 -12 -16 -11 -3 4 15 20 32 15 30 -10z
m-73 -54 c4 -7 4 -10 -1 -6 -4 4 -15 2 -24 -5 -14 -11 -14 -10 -2 6 16 20 18
21 27 5z m-36 -32 c0 -3 -4 -8 -10 -11 -5 -3 -10 -1 -10 4 0 6 5 11 10 11 6 0
10 -2 10 -4z m-42 -30 c-7 -8 -15 -12 -17 -11 -5 6 10 25 20 25 5 0 4 -6 -3
-14z m62 10 c0 -3 -4 -8 -10 -11 -5 -3 -10 -1 -10 4 0 6 5 11 10 11 6 0 10 -2
10 -4z m-96 -39 c-3 -8 3 -20 12 -28 16 -12 17 -12 11 5 -6 16 -5 17 7 7 12
-10 12 -16 3 -25 -9 -10 -15 -9 -30 5 -17 15 -18 49 -3 49 3 0 3 -6 0 -13z
m-8 -54 c-1 -1 -12 0 -25 4 -15 4 -19 8 -10 13 10 7 42 -10 35 -17z m-31 -21
c-3 -3 -11 0 -18 7 -9 10 -8 11 6 5 10 -3 15 -9 12 -12z m-20 -12 c3 -6 -1 -7
-9 -4 -18 7 -21 14 -7 14 6 0 13 -4 16 -10z m-10 -69 c-4 -3 -10 1 -15 9 -7
12 -12 11 -31 -5 l-23 -20 20 27 c17 24 20 25 37 10 9 -8 15 -18 12 -21z
m-100 -26 c-39 -32 -56 -32 -21 0 15 14 32 25 39 25 7 0 -1 -11 -18 -25z m22
-21 c-3 -3 -12 -4 -19 -1 -8 3 -5 6 6 6 11 1 17 -2 13 -5z m-57 -25 c11 -8 9
-9 -10 -3 -22 6 -23 5 -11 -10 12 -14 12 -16 -3 -10 -12 5 -16 1 -14 -16 2
-13 -3 -25 -12 -28 -13 -4 -13 -3 -2 10 9 12 10 18 2 23 -8 5 -6 13 6 26 20
22 24 23 44 8z m-82 -71 c-2 -6 -15 -13 -29 -15 -18 -2 -20 -1 -9 6 8 5 18 7
22 5 4 -3 8 0 8 5 0 6 3 11 6 11 3 0 4 -5 2 -12z m-33 -48 c3 -5 -1 -10 -9
-10 -9 0 -16 5 -16 10 0 6 4 10 9 10 6 0 13 -4 16 -10z m-63 -33 c-31 -14 -27
-28 6 -22 25 5 26 5 5 -6 -12 -6 -30 -9 -39 -5 -16 6 -15 9 7 30 13 13 28 21
33 18 6 -3 0 -10 -12 -15z m-37 -47 c3 -5 -3 -10 -14 -10 -21 0 -25 -8 -22
-42 2 -19 -24 -25 -34 -8 -3 6 1 7 10 4 11 -5 16 -2 14 7 -8 39 29 77 46 49z
m-110 -121 c19 -9 18 -9 -2 -5 -13 2 -26 0 -29 -5 -3 -5 0 -9 5 -9 6 0 11 -4
11 -10 0 -16 -17 -12 -24 6 -6 16 0 35 12 33 4 0 16 -5 27 -10z m-95 -69 c0
-5 -5 -10 -11 -10 -5 0 -7 5 -4 10 3 6 8 10 11 10 2 0 4 -4 4 -10z m-23 -106
c-3 -3 -12 -4 -19 -1 -8 3 -5 6 6 6 11 1 17 -2 13 -5z m-121 -51 c-4 -4 -12
-1 -19 7 -9 10 -9 11 1 6 7 -4 12 -2 13 6 0 11 2 11 6 0 3 -7 2 -16 -1 -19z
m62 16 c-2 -6 -8 -10 -13 -10 -5 0 -11 4 -13 10 -2 6 4 11 13 11 9 0 15 -5 13
-11z m-24 -34 c6 -18 -2 -45 -15 -45 -4 0 -6 6 -3 14 3 8 1 17 -4 20 -5 3 -9
-2 -8 -12 1 -12 -8 -18 -26 -20 -16 -2 -28 1 -28 7 0 6 9 11 21 11 12 0 17 4
14 11 -4 6 -13 8 -21 5 -7 -3 -16 -1 -19 4 -3 5 8 7 25 5 16 -2 32 0 35 6 9
14 22 11 29 -6z m-119 -97 c-12 -16 -16 -17 -11 -5 5 15 2 17 -13 12 -11 -3
-22 -1 -26 4 -3 6 0 8 8 5 8 -3 20 2 27 11 21 26 35 1 15 -27z m75 22 c0 -5
-9 -10 -20 -10 -11 0 -20 5 -20 10 0 6 9 10 20 10 11 0 20 -4 20 -10z m370
-23 c0 -2 -12 -14 -27 -28 l-28 -24 24 28 c23 25 31 32 31 24z m-550 -42 c-6
-8 -9 -18 -6 -23 3 -5 -5 -9 -18 -9 l-24 0 26 23 c31 27 40 31 22 9z m-60 -96
c0 -11 -4 -18 -10 -14 -5 3 -6 13 -3 23 5 12 -1 10 -19 -8 -15 -14 -25 -26
-23 -29 3 -2 31 -4 65 -5 66 -1 87 -19 28 -24 -26 -2 -39 -9 -43 -23 -4 -10
-13 -19 -21 -19 -12 0 -12 4 -2 20 7 10 8 23 4 27 -5 4 -11 2 -13 -4 -7 -19
-21 -16 -34 8 -9 18 -6 25 23 49 36 30 48 30 48 -1z m-142 -126 c-2 -20 -8
-28 -20 -27 -10 1 -18 -2 -18 -8 0 -5 -13 -14 -30 -19 -16 -6 -30 -15 -30 -20
0 -13 14 -11 28 3 9 9 15 9 24 0 15 -15 28 -16 28 -2 0 6 -8 10 -17 10 -15 0
-15 2 -4 9 8 5 20 7 28 4 7 -3 13 0 13 6 0 6 5 11 10 11 6 0 8 -11 5 -25 -3
-14 -7 -36 -10 -50 -6 -27 -25 -35 -25 -10 0 15 -31 26 -65 22 -21 -2 -57 -28
-50 -35 3 -3 11 1 19 7 9 7 17 8 20 2 3 -5 -14 -17 -39 -28 -44 -18 -61 -36
-49 -54 9 -15 22 -10 20 8 0 12 7 19 22 21 12 2 22 8 22 13 0 5 5 9 10 9 18 0
11 -30 -7 -30 -17 -1 -17 -1 0 -14 11 -9 17 -27 17 -55 l0 -41 -40 0 c-25 0
-40 5 -41 13 0 10 -2 10 -6 0 -8 -22 -23 -14 -23 12 0 15 5 24 13 23 14 -3 11
34 -4 43 -5 3 3 20 18 37 16 17 41 50 57 72 16 22 38 42 47 45 10 4 21 15 24
26 4 13 12 18 21 15 9 -3 12 -1 9 4 -7 12 2 30 16 30 6 0 9 -12 7 -27z m407
-62 c3 -5 2 -12 -3 -15 -5 -3 -9 1 -9 9 0 17 3 19 12 6z m-358 -38 c-3 -10 -5
-4 -5 12 0 17 2 24 5 18 2 -7 2 -21 0 -30z m-83 -19 c5 -12 2 -15 -10 -10 -8
3 -18 6 -20 6 -3 0 -2 5 1 10 9 15 22 12 29 -6z m366 -28 c0 -2 -7 -9 -15 -16
-13 -11 -14 -10 -9 4 5 14 24 23 24 12z m-635 -263 c-17 -40 -25 -52 -25 -36
0 12 30 73 36 73 2 0 -3 -17 -11 -37z m342 -95 c-3 -8 -6 -5 -6 6 -1 11 2 17
5 13 3 -3 4 -12 1 -19z m-9 -43 c-3 -3 -9 2 -12 12 -6 14 -5 15 5 6 7 -7 10
-15 7 -18z m-31 -17 c-3 -8 -6 -5 -6 6 -1 11 2 17 5 13 3 -3 4 -12 1 -19z
m-340 -200 c-3 -7 -5 -2 -5 12 0 14 2 19 5 13 2 -7 2 -19 0 -25z"/>
<path d="M24790 9331 c0 -6 4 -13 10 -16 6 -3 7 1 4 9 -7 18 -14 21 -14 7z"/>
<path d="M25190 9310 c0 -5 5 -10 10 -10 6 0 10 5 10 10 0 6 -4 10 -10 10 -5
0 -10 -4 -10 -10z"/>
<path d="M24820 9290 c0 -5 5 -10 11 -10 5 0 7 5 4 10 -3 6 -8 10 -11 10 -2 0
-4 -4 -4 -10z"/>
<path d="M24855 9259 c-4 -6 -5 -12 -2 -15 2 -3 7 2 10 11 7 17 1 20 -8 4z"/>
<path d="M24861 9214 c0 -11 3 -14 6 -6 3 7 2 16 -1 19 -3 4 -6 -2 -5 -13z"/>
<path d="M25155 9220 c4 -6 11 -8 16 -5 14 9 11 15 -7 15 -8 0 -12 -5 -9 -10z"/>
<path d="M24890 9165 c0 -5 6 -32 13 -60 12 -45 14 -47 19 -23 3 15 1 25 -3
22 -5 -3 -9 5 -9 18 0 13 -5 30 -10 38 -5 8 -10 11 -10 5z"/>
<path d="M24947 9134 c-4 -4 -7 -14 -7 -23 0 -11 3 -12 11 -4 6 6 10 16 7 23
-2 6 -7 8 -11 4z"/>
<path d="M24926 9045 c-3 -8 -1 -15 4 -15 6 0 10 7 10 15 0 8 -2 15 -4 15 -2
0 -6 -7 -10 -15z"/>
<path d="M14075 8629 c-43 -12 -99 -62 -121 -106 -18 -36 -19 -86 -24 -1078
-6 -1147 -2 -1081 -69 -1186 -22 -35 -44 -54 -88 -75 -56 -28 -63 -29 -203
-29 -164 1 -218 15 -305 82 -81 61 -163 74 -236 37 -37 -19 -135 -130 -160
-182 -30 -61 -23 -143 17 -209 57 -93 245 -210 410 -254 110 -30 369 -38 502
-15 385 66 619 331 672 756 13 111 14 2071 0 2120 -13 49 -66 109 -114 131
-32 14 -64 18 -146 18 -58 0 -118 -5 -135 -10z"/>
<path d="M3845 6291 c-16 -4 -40 -13 -51 -19 -30 -16 -83 -78 -89 -105 -4 -13
-5 -111 -3 -218 l3 -196 28 -36 c52 -68 88 -79 257 -75 l148 3 39 31 c67 53
78 88 81 261 5 225 -14 290 -101 335 -35 19 -61 23 -162 25 -66 1 -133 -2
-150 -6z"/>
<path d="M4588 6291 c-50 -16 -94 -50 -116 -89 -21 -37 -22 -52 -22 -231 0
-157 3 -198 16 -224 23 -46 44 -66 87 -89 35 -17 56 -19 186 -16 144 3 149 4
184 31 70 53 77 81 77 293 0 223 -9 255 -88 302 -44 25 -56 27 -172 29 -69 1
-137 -2 -152 -6z"/>
<path d="M17781 5064 c0 -11 3 -14 6 -6 3 7 2 16 -1 19 -3 4 -6 -2 -5 -13z"/>
<path d="M17433 5020 c0 -30 2 -43 4 -27 2 15 2 39 0 55 -2 15 -4 2 -4 -28z"/>
<path d="M19205 4970 l-7 -80 -153 0 c-138 0 -154 2 -158 18 -3 9 -6 -10 -8
-43 -2 -49 -4 -40 -9 45 -3 58 -7 -651 -8 -1574 l-2 -1679 -107 6 c-235 12
-463 116 -638 292 -129 128 -223 293 -276 485 l-24 85 -5 1255 c-3 690 -7
1219 -9 1175 l-5 -80 -6 70 -6 70 -4 -80 -3 -80 -7 60 c-5 41 -7 49 -8 25 -5
-84 4 -80 -167 -80 l-153 0 -6 38 c-4 20 -11 62 -15 92 -5 30 -8 -509 -7
-1200 2 -1389 -1 -1324 67 -1538 74 -229 181 -405 352 -576 267 -268 589 -408
937 -410 l135 -1 36 -100 c168 -474 527 -796 962 -865 114 -19 310 -8 417 23
170 48 318 126 440 230 50 42 348 332 1000 971 1260 1236 1502 1471 1515 1471
10 0 172 -155 659 -630 23 -22 181 -175 351 -340 171 -165 387 -374 480 -465
94 -90 235 -228 315 -305 179 -174 423 -411 638 -621 364 -354 351 -344 449
-344 61 0 109 21 147 64 47 53 46 25 46 1063 0 942 -1 981 -20 1061 -36 148
-131 322 -266 482 -71 85 -885 897 -984 982 -213 182 -456 280 -700 280 -172
1 -290 -28 -455 -109 -153 -76 -249 -152 -505 -400 -137 -133 -157 -149 -173
-138 -9 7 -88 81 -175 166 -87 85 -178 171 -202 193 -25 21 -57 49 -72 63 -46
41 -189 132 -263 167 -271 129 -531 123 -815 -19 -159 -79 -254 -162 -730
-630 -167 -165 -446 -439 -620 -610 -173 -170 -466 -459 -650 -641 -401 -397
-463 -455 -475 -442 -2 2 -6 695 -7 1539 -1 844 -5 1566 -8 1604 l-5 70 -12
-75 -12 -75 6 83 c3 45 3 82 0 82 -3 0 -8 -36 -12 -80z m22 -252 c-2 -18 -4
-4 -4 32 0 36 2 50 4 33 2 -18 2 -48 0 -65z m3043 -874 c140 -32 252 -107 453
-304 71 -69 160 -154 198 -190 l70 -65 -183 -180 c-101 -100 -354 -347 -563
-550 -209 -204 -472 -460 -585 -570 -113 -111 -302 -295 -420 -411 -118 -115
-300 -293 -404 -394 -351 -345 -384 -372 -509 -430 -179 -84 -388 -80 -565 9
-180 91 -334 266 -423 479 -17 41 -33 89 -35 106 -5 30 -2 33 63 67 150 81 77
12 1402 1319 382 377 742 733 800 791 290 289 478 376 701 323z m2252 -33 c85
-22 153 -54 243 -114 67 -44 911 -878 1006 -994 116 -141 186 -280 189 -378 7
-176 -2 -1356 -10 -1353 -5 2 -58 50 -117 108 -59 58 -186 181 -283 275 -96
93 -254 246 -350 339 -96 93 -233 226 -305 295 -71 70 -207 200 -300 291 -94
91 -238 230 -320 310 -83 80 -217 210 -300 290 -82 79 -210 203 -284 274
l-133 130 173 169 c96 93 208 195 249 226 180 134 361 178 542 132z"/>
<path d="M655 3620 c-22 -11 -53 -39 -70 -63 l-30 -42 -3 -1540 -2 -1540 22
-45 c41 -81 108 -110 258 -110 109 0 162 12 208 46 70 53 66 22 72 704 l5 615
368 0 368 0 44 -82 c48 -92 319 -620 491 -958 124 -245 162 -296 234 -315 65
-18 285 -9 326 13 74 38 123 132 109 206 -5 30 -134 285 -343 681 -170 322
-282 544 -280 552 2 5 35 22 73 37 305 123 480 352 525 689 18 128 8 371 -19
479 -97 390 -364 593 -881 669 -97 14 -219 18 -775 21 -649 4 -661 3 -700 -17z
m1384 -494 c237 -42 371 -152 410 -334 16 -77 14 -247 -5 -317 -48 -187 -188
-281 -464 -316 -68 -8 -238 -13 -485 -13 l-380 -1 -3 503 -2 504 417 -5 c333
-3 437 -7 512 -21z"/>
<path d="M13784 3626 c-39 -17 -82 -61 -100 -103 -17 -39 -19 -228 -3 -270 14
-38 67 -92 106 -109 18 -8 64 -14 103 -14 l70 0 0 -1352 c0 -1308 1 -1354 19
-1395 12 -26 35 -52 62 -70 41 -27 46 -28 179 -28 128 0 139 2 172 24 19 13
46 40 59 59 l24 36 3 1535 c2 1072 0 1547 -8 1573 -13 44 -52 93 -91 113 -39
21 -548 21 -595 1z"/>
<path d="M4365 2839 c-359 -49 -655 -243 -793 -519 -44 -90 -47 -100 -47 -176
0 -73 3 -84 28 -117 45 -59 91 -77 216 -84 99 -5 113 -4 155 16 56 27 80 60
107 143 51 158 149 247 319 289 82 21 318 18 400 -5 146 -40 242 -117 275
-222 21 -66 15 -146 -13 -183 -46 -62 -72 -69 -407 -121 -348 -54 -528 -96
-702 -166 -349 -140 -521 -377 -500 -689 8 -117 28 -191 79 -295 34 -69 58
-102 132 -176 79 -78 105 -97 196 -142 173 -84 236 -97 490 -97 193 0 224 2
305 24 158 41 325 131 414 225 19 20 39 36 43 36 4 0 8 -19 8 -43 0 -59 36
-125 87 -161 36 -25 53 -29 131 -34 155 -8 242 30 278 123 16 43 16 55 -2 238
-16 165 -18 267 -16 717 2 543 -4 672 -38 817 -78 331 -290 523 -650 589 -103
18 -399 26 -495 13z m705 -1333 c0 -1 -5 -60 -10 -129 -33 -407 -219 -617
-581 -656 -311 -34 -511 90 -513 319 -2 137 61 214 228 280 110 44 230 73 555
135 263 50 321 60 321 51z"/>
<path d="M6803 2829 c-230 -33 -449 -127 -581 -250 -57 -52 -127 -152 -155
-221 -46 -117 -53 -283 -17 -420 34 -124 152 -275 272 -346 152 -90 286 -131
668 -207 265 -53 337 -73 430 -120 115 -58 170 -136 170 -237 -1 -172 -172
-274 -480 -285 -223 -8 -343 29 -456 141 -41 41 -71 84 -93 131 -18 39 -40 85
-48 103 -21 43 -65 79 -116 93 -76 21 -263 -21 -321 -71 -81 -71 -87 -154 -22
-286 144 -295 413 -487 770 -550 96 -17 361 -19 472 -3 395 55 676 249 782
541 24 67 27 86 27 223 0 132 -3 159 -24 223 -74 225 -271 382 -601 477 -63
18 -232 57 -375 85 -404 81 -490 115 -542 215 -23 43 -21 124 3 165 90 156
526 211 753 95 64 -32 137 -99 168 -153 74 -132 111 -162 201 -162 65 0 199
36 244 66 75 49 101 159 59 248 -61 124 -177 262 -283 334 -118 80 -289 147
-441 172 -74 12 -377 11 -464 -1z"/>
<path d="M9435 2826 c-226 -37 -422 -125 -585 -261 -75 -63 -177 -185 -234
-280 -94 -157 -150 -326 -177 -530 -16 -123 -6 -392 20 -515 105 -516 453
-857 954 -936 76 -12 146 -15 291 -11 172 4 203 7 310 35 284 74 513 238 650
467 44 71 48 134 15 203 -28 57 -74 86 -179 112 -150 38 -212 17 -292 -101
-77 -115 -184 -192 -321 -230 -119 -34 -320 -34 -427 -1 -192 60 -323 168
-403 333 -46 93 -86 242 -73 274 5 13 115 15 841 15 919 0 874 -3 932 63 48
54 57 94 49 216 -40 601 -369 1016 -903 1136 -95 22 -366 28 -468 11z m370
-461 c236 -50 415 -238 451 -472 l7 -43 -631 0 c-394 0 -633 4 -637 10 -10 16
24 129 62 203 79 159 232 268 424 306 71 14 248 12 324 -4z"/>
<path d="M12152 2830 c-393 -55 -722 -289 -890 -631 -158 -325 -183 -750 -65
-1124 104 -329 348 -590 663 -708 161 -60 237 -72 480 -72 236 0 303 8 451 56
76 24 196 83 276 135 132 87 313 302 328 393 10 61 -11 120 -60 167 -36 35
-55 44 -134 64 -159 39 -215 19 -306 -110 -90 -130 -214 -206 -379 -235 -397
-68 -725 126 -817 483 -10 41 -19 92 -19 114 l0 38 840 0 c805 0 842 1 878 19
42 22 63 43 86 88 37 73 8 369 -54 554 -134 401 -425 665 -830 754 -88 19
-355 28 -448 15z m416 -483 c150 -52 263 -150 328 -284 33 -68 67 -189 57
-205 -2 -5 -287 -8 -634 -8 l-629 0 0 23 c0 39 30 129 68 201 53 101 140 185
245 236 121 58 185 70 352 66 118 -3 151 -7 213 -29z"/>
</g>
</svg>
